<svg fill="none" height="24" viewBox="0 0 151 24" width="151" xmlns="http://www.w3.org/2000/svg" aria-label="kongaNow" class="Labels_label__Jvq0R" name="kongaNow"><path d="M0 0h139.343C145.781 0 151 5.22 151 11.657 151 18.474 145.474 24 138.657 24H0z" fill="#FCDBED"></path><path d="M16.225 13.273a9 9 0 0 1-1.457 1.937c-1.558 1.457-3.39 1.903-5.466 1.625a5.7 5.7 0 0 1-3.43-1.671c-1.808-1.866-2.27-4.072-1.544-6.56.507-1.739 1.64-2.934 3.212-3.709 1.157-.57 2.414-.683 3.712-.528a6 6 0 0 1 4.03 2.172c.353.42.63.91.942 1.36.471.73.523 1.559.575 2.38a8.4 8.4 0 0 1-.295 2.551.7.7 0 0 1-.279.443" fill="#FBA100"></path><path d="M51.963 13.335c-.038 1.255.057 2.816-.042 4.372a2.16 2.16 0 0 1-2.073 1.97c-1.866.08-3.72-.113-5.575-.268a.366.366 0 0 1-.382-.272.4.4 0 0 1-.003-.169q.033-.637 0-1.275c-.02-.385.148-.448.496-.425q1.991.132 3.988.21c.625.024.982-.57.703-1.133-.11-.224-.333-.126-.484-.097-.88.16-1.772.235-2.666.224-1.057 0-1.887-.38-2.323-1.405a2.6 2.6 0 0 1-.182-1.016c0-1.093-.011-2.187 0-3.28.013-1.6.935-2.55 2.529-2.569 1.864-.02 3.73 0 5.595-.014.364 0 .432.146.43.463-.016 1.466-.01 2.922-.01 4.684m-18.257-.804v2.048c-.01 1.3-.91 2.316-2.21 2.36a70 70 0 0 1-4.555 0c-1.197-.044-2.066-1.094-2.091-2.433a101 101 0 0 1 0-4.008c.029-1.483 1.04-2.447 2.523-2.45 1.243 0 2.487.014 3.73 0 1.552-.024 2.68 1.036 2.603 2.581-.025.627 0 1.267 0 1.902m27.12.744c0 1.016-.013 2.031 0 3.048 0 .34-.07.494-.45.474a20 20 0 0 0-1.727 0c-.246 0-.401-.048-.417-.34-.017-.29-.163-.38-.452-.22a6.05 6.05 0 0 1-3.169.742c-1.175-.033-2.142-.844-2.283-1.877-.116-.85-.202-1.71.223-2.527a2.12 2.12 0 0 1 1.712-1.173c1.04-.142 2.086-.048 3.13-.075.283 0 .6.071.58-.403-.02-.473-.182-.681-.623-.7-1.261-.05-2.513.095-3.764.194-.421.033-.584-.088-.547-.52q.045-.5 0-1c-.03-.355.084-.519.457-.546 1.69-.157 3.376-.334 5.074-.29a2.244 2.244 0 0 1 2.25 2.254c.013.986 0 1.971 0 2.957z" fill="#ED017F"></path><path d="M16.225 13.273a7.8 7.8 0 0 0 .456-2.824c-.031-.729-.055-1.47-.395-2.15a1.3 1.3 0 0 1-.062-.4c.15-.642.062-1.296.06-1.943 0-.385.124-.501.495-.487q.934.036 1.866 0c.364-.014.497.093.494.481-.022 1.564 0 3.125-.018 4.687 0 .426.103.575.546.582.5.011.804-.122 1.044-.586.38-.729.85-1.423 1.265-2.14a.47.47 0 0 1 .459-.289 110 110 0 0 0 2.368 0c.299 0 .332.071.182.334-.7 1.177-1.375 2.368-2.075 3.547a.45.45 0 0 0 0 .534c.67 1.21 1.323 2.43 1.98 3.644.26.479.24.517-.305.519-.653 0-1.305-.027-1.955.01-.385.023-.58-.145-.74-.453q-.663-1.256-1.348-2.501c-.204-.365-.888-.572-1.256-.392-.182.09-.145.25-.147.395 0 .85-.011 1.7 0 2.551 0 .299-.097.4-.392.395a45 45 0 0 0-2.046 0c-.328 0-.415-.127-.408-.433.016-.758 0-1.516 0-2.274a3.6 3.6 0 0 0-.068-.807m18.089-.771c0-1.275.01-2.55 0-3.826 0-.35.086-.494.455-.475.547.025 1.093.021 1.64 0 .317-.015.48.083.507.413.023.266.105.348.402.182a6.15 6.15 0 0 1 3.303-.761c1.49.053 2.422 1.107 2.39 2.406-.047 1.954-.021 3.91 0 5.867 0 .365-.098.507-.48.487a18 18 0 0 0-1.822 0c-.425.023-.58-.093-.572-.547.027-1.683.013-3.367.01-5.05 0-.638-.14-.751-.774-.786-.6-.032-1.171.132-1.754.208-.32.042-.476.217-.47.589.022 1.698 0 3.396.018 5.101 0 .374-.098.51-.483.494a23 23 0 0 0-1.91 0c-.364.014-.462-.124-.456-.476.007-1.275-.004-2.55-.004-3.826m30.406-.43c-.127.182-.074.35-.076.507 0 1.319-.013 2.638 0 3.957 0 .344-.104.452-.441.434-.47-.026-.94-.015-1.41 0-.24 0-.365-.059-.365-.328q.012-3.936 0-7.87c0-.245.092-.364.348-.364q.843.018 1.684 0c.28 0 .397.182.51.374l2.387 4.241c.044.079.076.182.182.144s.071-.182.073-.284V9.017c0-.603 0-.603.596-.605.393 0 .787.01 1.182 0 .28 0 .414.08.412.386q-.01 3.888 0 7.778c0 .264-.09.403-.365.384h-.316c-1.753 0-1.744 0-2.53-1.572-.287-.577-.622-1.13-.941-1.69-.32-.562-.605-1.07-.93-1.626M78.281 9.94c0 1.547.024 3.098 0 4.637-.022 1.77-.6 2.444-2.357 2.52-1.323.057-2.655.124-3.985-.1-.76-.13-1.467-.862-1.48-1.605q-.043-2.706 0-5.41c.011-.75.72-1.495 1.458-1.572 1.612-.16 3.235-.16 4.847 0 .577.055 1.195.638 1.331 1.204.033.135.028.275.183.341z" fill="#ED017F"></path><path d="M78.287 9.951c.047-.39-.09-.75-.208-1.106-.118-.355.024-.433.337-.428.53 0 1.06.011 1.59 0a.35.35 0 0 1 .405.323c.257 1.13.516 2.26.794 3.385.12.485.163.997.467 1.518.28-1.062.547-2.045.802-3.027.17-.64.364-1.275.517-1.914a.33.33 0 0 1 .386-.285c.303.011.607 0 .911 0 .73 0 .73 0 .911.698q.57 2.16 1.133 4.324c.011.036.059.063.115.123.3-.375.259-.84.365-1.247.26-.973.46-1.963.683-2.945q.045-.175.067-.355c.05-.4.215-.636.675-.605.459.031.97.01 1.457 0 .253 0 .343.09.297.364-.142.851-.446 1.657-.649 2.491-.313 1.286-.694 2.55-1.04 3.826-.137.509-.259 1.02-.379 1.532a.38.38 0 0 1-.42.327h-1.684c-.275 0-.386-.133-.454-.4-.2-.785-.44-1.559-.658-2.343-.216-.783-.413-1.523-.701-2.297-.144.474-.295.946-.428 1.421q-.467 1.673-.911 3.353a.33.33 0 0 1-.259.276.3.3 0 0 1-.133.002c-.516 0-1.033-.027-1.547 0-.364.03-.52-.153-.601-.459-.492-1.845-.966-3.697-1.489-5.535-.098-.346-.056-.756-.364-1.037z" fill="#ED017F"></path><path d="M8.95 14.226c.892.156 1.809.1 2.675-.164.98-.266 1.786-.729 2.277-1.64a.4.4 0 0 1 .119-.139.4.4 0 0 1 .124-.043c-.022 1.208-1.363 2.418-3.329 2.698-1.59.226-3.49-.495-3.839-1.592q.628.406 1.316.7c.2.143.457.058.657.18M6.312 8.944c0-.758.895-1.565 1.706-1.434.712.115 1.386.383 1.794 1.059.046.072.142.143.062.23s-.17.01-.25-.023c-.3-.127-.546-.339-.872-.444a2.1 2.1 0 0 0-1.476.023c-.339.132-.425.447-.629.673-.072.08-.038.284-.218.23-.142-.035-.113-.196-.117-.314" fill="#D6367D"></path><path d="M10.306 8.567a2.19 2.19 0 0 1 1.447-1.671c.694-.251 1.275-.08 1.75.455.02.022.051.04.062.066.091.242.432.53.245.712-.188.183-.365-.202-.533-.335-.546-.413-1.377-.404-2.024.057-.33.222-.632.473-.947.716" fill="#D6357D"></path><path d="M10.403 11.682c-.252-1.224-.252-1.224-.064-1.64.093.589.33 1.094.238 1.64a.12.12 0 0 1-.134.028.1.1 0 0 1-.04-.028" fill="#E16B56"></path><path d="M10.403 11.682h.182c.041.224.01.456-.088.662a1.08 1.08 0 0 1-.095-.662" fill="#DA4468"></path><path d="M8.95 14.226c-.235 0-.488.073-.652-.183a.76.76 0 0 1 .652.183" fill="#E0615B"></path><path d="M49.097 12.27v1.458c0 .254-.086.405-.344.441-.69.084-1.387.1-2.08.05-.274-.013-.409-.232-.409-.51 0-.893-.01-1.784 0-2.677a.565.565 0 0 1 .598-.603c.634-.018 1.275 0 1.904-.01.267 0 .333.12.328.365-.004.488.003.99.003 1.487m-21.393.211v-1.589a.533.533 0 0 1 .585-.599c.665-.011 1.331 0 2.004 0a.512.512 0 0 1 .565.568c0 1.094.012 2.187 0 3.27 0 .41-.234.635-.667.63h-1.822c-.43 0-.656-.245-.662-.684-.01-.535-.005-1.066-.003-1.596m28.967.946h.953a.312.312 0 0 1 .346.375c-.018.22.113.505-.237.603a6.5 6.5 0 0 1-1.966.253c-.388-.012-.608-.182-.61-.617-.002-.436.21-.605.605-.614.302-.006.607 0 .909 0m15.957-.72v-2.004c0-.428.202-.649.625-.656a58 58 0 0 1 2.186 0 .62.62 0 0 1 .649.669c.02 1.317.016 2.634 0 3.953 0 .425-.254.65-.7.658-.729.01-1.458 0-2.186 0-.396 0-.585-.182-.581-.581.012-.676.009-1.358.007-2.039" fill="#FEF2F9"></path><path d="M86.637 16.875c-.793 0-.742-.011-.911-.778a11 11 0 0 0-.319-1.252c-.233-.67-.343-1.385-.585-2.051-.136-.38-.127-.79-.335-1.152a.51.51 0 0 0-.534-.319c-.253.024-.312.192-.4.41-.374.911-.467 1.902-.815 2.824-.213.565-.303 1.175-.45 1.762-.093.364-.248.65-.703.547h-.046c-.935 0-.953 0-1.06-.931-.073-.63-.409-1.184-.487-1.802-.075-.581-.304-1.115-.454-1.67-.207-.772-.291-1.579-.632-2.315-.131-.284-.06-.623-.242-.902-.055-.08.018-.202.124-.262.512-.3 1.182.076 1.337.629.182.668.28 1.357.483 2.024q.248.9.403 1.822c.038.224.13.436.271.616.215.266.702.215.793-.092.156-.523.26-1.062.399-1.59.138-.529.346-1.008.435-1.538q.105-.611.299-1.2c.093-.288.08-.68.546-.706.73-.038 1.03.066 1.055.582.028.59.314 1.093.434 1.64q.182 1.03.521 2.022c.102.216.163.449.182.687 0 .251.197.364.443.348a.65.65 0 0 0 .63-.547c.244-.997.427-2.022.69-3.023.101-.373.281-.752.236-1.178-.038-.338.197-.512.537-.534.959-.059.97-.017.73.902-.249.963-.513 1.924-.772 2.884-.204.767-.35 1.554-.643 2.305-.129.316-.21.65-.238.99-.04.728-.177.848-.922.848" fill="#ED017F"></path><path d="M16.225 13.273a9 9 0 0 1-1.457 1.937c-1.558 1.457-3.39 1.903-5.466 1.625a5.7 5.7 0 0 1-3.43-1.671c-1.808-1.866-2.27-4.072-1.544-6.56.507-1.739 1.64-2.934 3.212-3.709 1.157-.57 2.414-.683 3.712-.528a6 6 0 0 1 4.03 2.172c.353.42.63.91.942 1.36.471.73.523 1.559.575 2.38a8.4 8.4 0 0 1-.295 2.551.7.7 0 0 1-.279.443" fill="#FBA100"></path><path d="M51.963 13.335c-.038 1.255.057 2.816-.042 4.372a2.16 2.16 0 0 1-2.073 1.97c-1.866.08-3.72-.113-5.575-.268a.366.366 0 0 1-.382-.272.4.4 0 0 1-.003-.169q.033-.637 0-1.275c-.02-.385.148-.448.496-.425q1.991.132 3.988.21c.625.024.982-.57.703-1.133-.11-.224-.333-.126-.484-.097-.88.16-1.772.235-2.666.224-1.057 0-1.887-.38-2.323-1.405a2.6 2.6 0 0 1-.182-1.016c0-1.093-.011-2.187 0-3.28.013-1.6.935-2.55 2.529-2.569 1.864-.02 3.73 0 5.595-.014.364 0 .432.146.43.463-.016 1.466-.01 2.922-.01 4.684m-18.257-.804v2.048c-.01 1.3-.91 2.316-2.21 2.36a70 70 0 0 1-4.555 0c-1.197-.044-2.066-1.094-2.091-2.433a101 101 0 0 1 0-4.008c.029-1.483 1.04-2.447 2.523-2.45 1.243 0 2.487.014 3.73 0 1.552-.024 2.68 1.036 2.603 2.581-.025.627 0 1.267 0 1.902m27.12.744c0 1.016-.013 2.031 0 3.048 0 .34-.07.494-.45.474a20 20 0 0 0-1.727 0c-.246 0-.401-.048-.417-.34-.017-.29-.163-.38-.452-.22a6.05 6.05 0 0 1-3.169.742c-1.175-.033-2.142-.844-2.283-1.877-.116-.85-.202-1.71.223-2.527a2.12 2.12 0 0 1 1.712-1.173c1.04-.142 2.086-.048 3.13-.075.283 0 .6.071.58-.403-.02-.473-.182-.681-.623-.7-1.261-.05-2.513.095-3.764.194-.421.033-.584-.088-.547-.52q.045-.5 0-1c-.03-.355.084-.519.457-.546 1.69-.157 3.376-.334 5.074-.29a2.244 2.244 0 0 1 2.25 2.254c.013.986 0 1.971 0 2.957z" fill="#ED017F"></path><path d="M16.225 13.273a7.8 7.8 0 0 0 .456-2.824c-.031-.729-.055-1.47-.395-2.15a1.3 1.3 0 0 1-.062-.4c.15-.642.062-1.296.06-1.943 0-.385.124-.501.495-.487q.934.036 1.866 0c.364-.014.497.093.494.481-.022 1.564 0 3.125-.018 4.687 0 .426.103.575.546.582.5.011.804-.122 1.044-.586.38-.729.85-1.423 1.265-2.14a.47.47 0 0 1 .459-.289 110 110 0 0 0 2.368 0c.299 0 .332.071.182.334-.7 1.177-1.375 2.368-2.075 3.547a.45.45 0 0 0 0 .534c.67 1.21 1.323 2.43 1.98 3.644.26.479.24.517-.305.519-.653 0-1.305-.027-1.955.01-.385.023-.58-.145-.74-.453q-.663-1.256-1.348-2.501c-.204-.365-.888-.572-1.256-.392-.182.09-.145.25-.147.395 0 .85-.011 1.7 0 2.551 0 .299-.097.4-.392.395a45 45 0 0 0-2.046 0c-.328 0-.415-.127-.408-.433.016-.758 0-1.516 0-2.274a3.6 3.6 0 0 0-.068-.807m18.089-.771c0-1.275.01-2.55 0-3.826 0-.35.086-.494.455-.475.547.025 1.093.021 1.64 0 .317-.015.48.083.507.413.023.266.105.348.402.182a6.15 6.15 0 0 1 3.303-.761c1.49.053 2.422 1.107 2.39 2.406-.047 1.954-.021 3.91 0 5.867 0 .365-.098.507-.48.487a18 18 0 0 0-1.822 0c-.425.023-.58-.093-.572-.547.027-1.683.013-3.367.01-5.05 0-.638-.14-.751-.774-.786-.6-.032-1.171.132-1.754.208-.32.042-.476.217-.47.589.022 1.698 0 3.396.018 5.101 0 .374-.098.51-.483.494a23 23 0 0 0-1.91 0c-.364.014-.462-.124-.456-.476.007-1.275-.004-2.55-.004-3.826" fill="#ED017F"></path><path d="M64.72 12.072c-.127.182-.074.35-.076.507 0 1.319-.013 2.638 0 3.957 0 .344-.104.452-.441.434-.47-.026-.94-.015-1.41 0-.24 0-.365-.059-.365-.328q.012-3.936 0-7.87c0-.245.092-.364.348-.364q.843.018 1.684 0c.28 0 .397.182.51.374l2.387 4.241c.044.079.076.182.182.144s.071-.182.073-.284V9.017c0-.603 0-.603.596-.605.393 0 .787.01 1.182 0 .28 0 .414.08.412.386q-.01 3.888 0 7.778c0 .264-.09.403-.365.384h-.316c-1.753 0-1.744 0-2.53-1.572-.287-.577-.622-1.13-.941-1.69-.32-.562-.605-1.07-.93-1.626M78.281 9.94c0 1.547.024 3.098 0 4.637-.022 1.77-.6 2.444-2.357 2.52-1.323.057-2.655.124-3.985-.1-.76-.13-1.467-.862-1.48-1.605q-.043-2.706 0-5.41c.011-.75.72-1.495 1.458-1.572 1.612-.16 3.235-.16 4.847 0 .577.055 1.195.638 1.331 1.204.033.135.028.275.183.341z" fill="#000"></path><path d="M78.287 9.951c.047-.39-.09-.75-.208-1.106-.118-.355.024-.433.337-.428.53 0 1.06.011 1.59 0a.35.35 0 0 1 .405.323c.257 1.13.516 2.26.794 3.385.12.485.163.997.467 1.518.28-1.062.547-2.045.802-3.027.17-.64.364-1.275.517-1.914a.33.33 0 0 1 .386-.285c.303.011.607 0 .911 0 .73 0 .73 0 .911.698q.57 2.16 1.133 4.324c.011.036.059.063.115.123.3-.375.259-.84.365-1.247.26-.973.46-1.963.683-2.945q.045-.175.067-.355c.05-.4.215-.636.675-.605.459.031.97.01 1.457 0 .253 0 .343.09.297.364-.142.851-.446 1.657-.649 2.491-.313 1.286-.694 2.55-1.04 3.826-.137.509-.259 1.02-.379 1.532a.38.38 0 0 1-.42.327h-1.684c-.275 0-.386-.133-.454-.4-.2-.785-.44-1.559-.658-2.343-.216-.783-.413-1.523-.701-2.297-.144.474-.295.946-.428 1.421q-.467 1.673-.911 3.353a.33.33 0 0 1-.259.276.3.3 0 0 1-.133.002c-.516 0-1.033-.027-1.547 0-.364.03-.52-.153-.601-.459-.492-1.845-.966-3.697-1.489-5.535-.098-.346-.056-.756-.364-1.037z" fill="#000"></path><path d="M8.95 14.226c.892.156 1.809.1 2.675-.164.98-.266 1.786-.729 2.277-1.64a.4.4 0 0 1 .119-.139.4.4 0 0 1 .124-.043c-.022 1.208-1.363 2.418-3.329 2.698-1.59.226-3.49-.495-3.839-1.592q.628.406 1.316.7c.2.143.457.058.657.18M6.312 8.944c0-.758.895-1.565 1.706-1.434.712.115 1.386.383 1.794 1.059.046.072.142.143.062.23s-.17.01-.25-.023c-.3-.127-.546-.339-.872-.444a2.1 2.1 0 0 0-1.476.023c-.339.132-.425.447-.629.673-.072.08-.038.284-.218.23-.142-.035-.113-.196-.117-.314" fill="#D6367D"></path><path d="M10.306 8.567a2.19 2.19 0 0 1 1.447-1.671c.694-.251 1.275-.08 1.75.455.02.022.051.04.062.066.091.242.432.53.245.712-.188.183-.365-.202-.533-.335-.546-.413-1.377-.404-2.024.057-.33.222-.632.473-.947.716" fill="#D6357D"></path><path d="M10.403 11.682c-.252-1.224-.252-1.224-.064-1.64.093.589.33 1.094.238 1.64a.12.12 0 0 1-.134.028.1.1 0 0 1-.04-.028" fill="#E16B56"></path><path d="M10.403 11.682h.182c.041.224.01.456-.088.662a1.08 1.08 0 0 1-.095-.662" fill="#DA4468"></path><path d="M8.95 14.226c-.235 0-.488.073-.652-.183a.76.76 0 0 1 .652.183" fill="#E0615B"></path><path d="M49.097 12.27v1.458c0 .254-.086.405-.344.441-.69.084-1.387.1-2.08.05-.274-.013-.409-.232-.409-.51 0-.893-.01-1.784 0-2.677a.565.565 0 0 1 .598-.603c.634-.018 1.275 0 1.904-.01.267 0 .333.12.328.365-.004.488.003.99.003 1.487m-21.393.211v-1.589a.533.533 0 0 1 .585-.599c.665-.011 1.331 0 2.004 0a.512.512 0 0 1 .565.568c0 1.094.012 2.187 0 3.27 0 .41-.234.635-.667.63h-1.822c-.43 0-.656-.245-.662-.684-.01-.535-.005-1.066-.003-1.596m28.967.946h.953a.312.312 0 0 1 .346.375c-.018.22.113.505-.237.603a6.5 6.5 0 0 1-1.966.253c-.388-.012-.608-.182-.61-.617-.002-.436.21-.605.605-.614.302-.006.607 0 .909 0m15.957-.72v-2.004c0-.428.202-.649.625-.656a58 58 0 0 1 2.186 0 .62.62 0 0 1 .649.669c.02 1.317.016 2.634 0 3.953 0 .425-.254.65-.7.658-.729.01-1.458 0-2.186 0-.396 0-.585-.182-.581-.581.012-.676.009-1.358.007-2.039" fill="#FCDBED"></path><path d="M86.637 16.875c-.793 0-.742-.011-.911-.778a11 11 0 0 0-.319-1.252c-.233-.67-.343-1.385-.585-2.051-.136-.38-.127-.79-.335-1.152a.51.51 0 0 0-.534-.319c-.253.024-.312.192-.4.41-.374.911-.467 1.902-.815 2.824-.213.565-.303 1.175-.45 1.762-.093.364-.248.65-.703.547h-.046c-.935 0-.953 0-1.06-.931-.073-.63-.409-1.184-.487-1.802-.075-.581-.304-1.115-.454-1.67-.207-.772-.291-1.579-.632-2.315-.131-.284-.06-.623-.242-.902-.055-.08.018-.202.124-.262.512-.3 1.182.076 1.337.629.182.668.28 1.357.483 2.024q.248.9.403 1.822c.038.224.13.436.271.616.215.266.702.215.793-.092.156-.523.26-1.062.399-1.59.138-.529.346-1.008.435-1.538q.105-.611.299-1.2c.093-.288.08-.68.546-.706.73-.038 1.03.066 1.055.582.028.59.314 1.093.434 1.64q.182 1.03.521 2.022c.102.216.163.449.182.687 0 .251.197.364.443.348a.65.65 0 0 0 .63-.547c.244-.997.427-2.022.69-3.023.101-.373.281-.752.236-1.178-.038-.338.197-.512.537-.534.959-.059.97-.017.73.902-.249.963-.513 1.924-.772 2.884-.204.767-.35 1.554-.643 2.305-.129.316-.21.65-.238.99-.04.728-.177.848-.922.848" fill="#000"></path><path d="M108.333 15.667a1.665 1.665 0 0 1-2.845 1.178 1.67 1.67 0 0 1 0-2.357 1.67 1.67 0 0 1 2.357 0c.313.313.488.737.488 1.179m-6.666 0a1.666 1.666 0 1 1-3.331-.001 1.666 1.666 0 0 1 3.331 0" stroke="#94004F" stroke-linecap="round" stroke-linejoin="round"></path><path d="M105 15.667h-3.333m-5-9h6.666c.943 0 1.414 0 1.707.293.293.292.293.763.293 1.707v5.666m.334-6h1.2c.554 0 .83 0 1.06.13.229.13.371.367.656.842l1.132 1.886c.142.236.212.355.249.486.036.131.036.268.036.544V14c0 .622 0 .934-.134 1.166a1 1 0 0 1-.366.366c-.232.134-.543.134-1.167.134M93 8.667h7.667m-6.334 2h5m-3.666 2h3.666" stroke="#94004F" stroke-linecap="round" stroke-linejoin="round"></path></svg>